<?xml version="1.0" encoding="utf-8"?>
<svg xmlns="http://www.w3.org/2000/svg" width="660" height="660" viewBox="0 0 660 660" version="1.1">
  <path d="M 0 330.001 L 0 660.003 L 329.641 659.751 L 659.283 659.5 L 659.533 329.75 L 659.785 0 L 329.892 0 L 0 0 L 0 330.001 M 0.493 330.5 C 0.493 512 0.608 586.399 0.749 495.831 C 0.889 405.263 0.889 256.763 0.749 165.831 C 0.608 74.899 0.493 149 0.493 330.5 M 254.626 137.25 C 254.052 140.137 238.496 228.225 220.056 333 C 201.616 437.775 186.284 524.512 185.985 525.75 L 185.441 528 L 223.479 528 C 246.57 528 261.517 527.63 261.517 527.059 C 261.517 524.331 280.685 418.405 281.278 417.855 C 285.118 414.292 357.813 355.141 358.055 355.383 C 358.231 355.56 351.631 393.71 343.385 440.16 C 335.14 486.61 328.394 525.377 328.394 526.308 C 328.394 527.867 331.325 528 365.805 528 L 403.217 528 L 403.727 525.75 C 404.008 524.513 419.542 436.425 438.249 330 C 456.955 223.575 472.504 135.488 472.802 134.25 L 473.343 132 L 435.304 132 C 412.438 132 397.266 132.372 397.266 132.933 C 397.266 137.057 370.914 282.773 370.003 283.692 C 367.533 286.179 294.076 345.952 293.812 345.688 C 293.66 345.536 301.962 297.394 312.261 238.706 L 330.987 132 L 293.328 132 L 255.67 132 L 254.626 137.25" stroke="none" fill-rule="evenodd" style="fill: rgb(255, 255, 255); paint-order: fill;"/>
  <path d="M 255.096 137.25 C 254.521 140.137 238.936 228.225 220.462 333 C 201.988 437.775 186.628 524.512 186.328 525.75 L 185.783 528 L 223.892 528 C 247.025 528 262 527.63 262 527.059 C 262 524.331 281.203 418.405 281.797 417.855 C 285.645 414.292 358.474 355.141 358.716 355.383 C 358.893 355.56 352.28 393.71 344.019 440.16 C 335.759 486.61 329 525.377 329 526.308 C 329 527.867 331.937 528 366.481 528 L 403.962 528 L 404.473 525.75 C 404.754 524.513 420.317 436.425 439.058 330 C 457.799 223.575 473.377 135.488 473.675 134.25 L 474.217 132 L 436.108 132 C 413.2 132 398 132.372 398 132.933 C 398 137.057 371.599 282.773 370.686 283.692 C 368.212 286.179 294.619 345.952 294.355 345.688 C 294.202 345.536 302.52 297.394 312.838 238.706 L 331.598 132 L 293.87 132 L 256.142 132 L 255.096 137.25" stroke="none" fill-rule="evenodd" style="fill: rgb(172, 19, 19);"/>
</svg>